<?xml version="1.0" encoding="utf-8"?>
<!-- Generator: Adobe Illustrator 24.1.3, SVG Export Plug-In . SVG Version: 6.00 Build 0)  -->
<svg version="1.1" id="ps_x5F_cc_x5F_app_x5F_RGB.svg"
	 xmlns="http://www.w3.org/2000/svg" xmlns:xlink="http://www.w3.org/1999/xlink" x="0px" y="0px" viewBox="0 0 240 234"
	 style="enable-background:new 0 0 240 234;" xml:space="preserve">
<style type="text/css">
	.st0{fill:#EC2224;}
</style>
<g>
	<polygon class="st0" points="142.2,0 205,0 205,150.4 	"/>
	<polygon class="st0" points="98,0 35.1,0 35.1,150.4 	"/>
	<polygon class="st0" points="120.1,55.4 160.1,150.4 133.9,150.4 121.9,120.1 92.6,120.1 	"/>
	<path class="st0" d="M56.9,210.7c-1.2-6.1-3.4-15.3-4.2-21.3h-0.1c-0.8,5.8-2.4,13.9-3.9,21.3H56.9z M47,219.7l-2.8,13.1
		c-0.1,0.5-0.3,0.6-0.7,0.6h-8c-0.5,0-0.7-0.2-0.6-0.8l11-47.4c0.3-1.4,0.3-2.2,0.3-4.6c0-0.3,0.2-0.5,0.5-0.5h11.4
		c0.4,0,0.6,0.2,0.7,0.6l12.8,52.1c0.1,0.5-0.1,0.7-0.5,0.7h-8.9c-0.4,0-0.7-0.3-0.7-0.6l-2.9-13.1H47z"/>
	<path class="st0" d="M92.9,200.4c-0.4-0.2-0.8-0.2-1.8-0.2c-4.6,0-8.1,4.2-8.1,12.5c0,8.8,3.5,12.4,8,12.4c0.6,0,1.4-0.1,1.9-0.2
		V200.4z M73.1,213c0-12.1,7.1-21.4,18.5-21.4h1.3v-14.2c0-0.2,0.2-0.4,0.5-0.4h8.9c0.3,0,0.4,0.2,0.4,0.4V225
		c0,1.2-0.1,2.9,0.2,5.5c0,0.2,0,0.4-0.3,0.6c-3.4,1.7-7.8,2.9-12,2.9C80.1,234,73.1,227.2,73.1,213z"/>
	<path class="st0" d="M117.6,212.6c0,7.7,1.7,12.7,5.4,12.7c3.6,0,5.3-4.3,5.3-12.7c0-7.8-1.3-12.6-5.2-12.6
		C119.7,200.1,117.6,204,117.6,212.6z M138.1,212.6c0,13.1-5.5,21.4-15.1,21.4c-10.8,0-15.1-9.4-15.1-21.4c0-12.3,5.5-21,15.2-21
		C132.5,191.5,138.1,199.3,138.1,212.6z"/>
	<path class="st0" d="M156.1,200.3c-0.7,0-2.1,0.1-3,0.4v24.4c0.7,0.2,1.2,0.2,1.7,0.2c3.7,0,8.1-3.8,8.2-14.1
		C163.1,203.2,159.9,200.3,156.1,200.3z M152.7,176.9c0.3,0,0.4,0.2,0.4,0.5V192c1.2-0.2,2.6-0.5,4.5-0.5c8.6,0,15.2,6.6,15.2,19.5
		c0,15-8.5,23-19.2,23c-3.1,0-6.2-0.4-9.6-1.5c-0.2-0.1-0.5-0.3-0.5-0.7v-54.5c0-0.3,0.2-0.5,0.5-0.5H152.7z"/>
	<path class="st0" d="M193.1,207.3c1.6,0,2.2,0,2.5-0.1c0.1-0.4,0.1-0.6,0.1-0.9c0-3.1-1-6.5-4.4-6.5c-3.3,0-4.6,3.4-5.1,7.5H193.1z
		 M186.1,215c0,6.4,2.4,10.3,9.1,10.3c2.2,0,4.1-0.3,6.3-1.2c0.4-0.2,0.7-0.2,0.7,0.4v6.9c0,0.6-0.2,0.9-0.6,1.1
		c-2.3,1.2-5.5,1.5-8.2,1.5c-12.2,0-16.9-8.9-16.9-20.6c0-12.4,5.5-21.9,15.2-21.9c10.2,0,13.2,9,13.2,16.4c0,2.6-0.2,5.2-0.4,6.2
		c-0.1,0.4-0.3,0.6-0.7,0.7c-0.8,0.1-3.4,0.2-7.9,0.2H186.1z"/>
</g>
</svg>
